<?xml version="1.0" standalone="no"?>
<!DOCTYPE svg PUBLIC "-//W3C//DTD SVG 20010904//EN"
 "http://www.w3.org/TR/2001/REC-SVG-20010904/DTD/svg10.dtd">
<svg version="1.0" xmlns="http://www.w3.org/2000/svg"
 width="512.000000pt" height="512.000000pt" viewBox="0 0 512.000000 512.000000"
 preserveAspectRatio="xMidYMid meet">
<metadata>
Created by potrace 1.14, written by Peter Selinger 2001-2017
</metadata>
<g transform="translate(0.000000,512.000000) scale(0.100000,-0.100000)"
fill="#000000" stroke="none">
<path d="M1578 5105 c-26 -7 -67 -24 -90 -38 -24 -14 -354 -338 -735 -719
-783 -784 -748 -742 -747 -893 0 -152 -35 -110 737 -883 375 -376 702 -698
727 -716 25 -18 61 -39 80 -45 88 -31 205 -22 280 22 19 11 169 153 333 316
286 284 298 294 291 256 -9 -50 -11 -2040 -2 -2113 14 -109 82 -203 186 -254
l67 -33 1063 -1 c1109 -2 1099 -2 1179 39 48 25 114 98 142 157 l26 55 3 1050
c2 773 0 1065 -8 1105 -28 128 -125 225 -255 255 -59 13 -2114 14 -2155 1 -15
-5 97 114 277 295 333 335 342 347 351 471 5 74 -13 149 -48 203 -16 25 -1161
1177 -1360 1368 -38 37 -86 72 -116 85 -64 27 -164 35 -226 17z m136 -214 c11
-1 1386 -1376 1387 -1387 0 -5 2 -18 5 -29 12 -58 3 -67 -695 -766 -741 -741
-712 -715 -786 -684 -39 16 -1374 1351 -1390 1390 -14 34 -11 70 9 100 21 33
1327 1336 1363 1360 28 20 52 23 107 16z m3117 -2451 c15 -7 36 -24 46 -39 17
-25 18 -82 19 -1046 1 -731 -2 -1030 -10 -1054 -6 -19 -24 -44 -39 -55 -28
-21 -30 -21 -1050 -22 -1112 0 -1076 -2 -1110 55 -16 27 -17 108 -17 1054 0
628 4 1035 10 1051 12 31 51 58 97 65 20 3 484 5 1031 4 734 -1 1002 -5 1023
-13z"/>
<path d="M1569 4543 c-95 -44 -144 -155 -114 -259 34 -116 157 -183 272 -149
165 50 215 244 93 365 -72 73 -157 87 -251 43z"/>
<path d="M1570 3652 c-167 -79 -165 -316 3 -396 89 -42 199 -19 262 55 35 42
46 73 50 131 11 169 -160 284 -315 210z"/>
<path d="M1621 2779 c-84 -16 -151 -84 -170 -171 -44 -199 197 -345 354 -215
178 147 43 431 -184 386z"/>
<path d="M3042 2217 c-90 -33 -153 -128 -147 -222 10 -162 175 -256 321 -184
141 71 161 266 38 367 -57 48 -144 63 -212 39z"/>
<path d="M4400 2223 c-110 -37 -173 -121 -169 -222 6 -123 99 -214 219 -214
165 0 270 168 199 317 -42 90 -164 148 -249 119z"/>
<path d="M3707 1546 c-147 -53 -193 -246 -84 -357 47 -50 96 -71 159 -71 95 1
179 60 209 149 61 174 -109 341 -284 279z"/>
<path d="M3024 871 c-137 -62 -174 -246 -70 -352 107 -110 295 -82 359 54 69
147 -37 317 -198 317 -27 0 -68 -9 -91 -19z"/>
<path d="M4374 877 c-83 -32 -144 -120 -144 -206 0 -52 36 -136 69 -163 53
-44 103 -61 166 -56 123 10 206 97 207 218 0 89 -55 171 -139 207 -39 16 -117
16 -159 0z"/>
</g>
</svg>
